<svg version="1.2" xmlns="http://www.w3.org/2000/svg" viewBox="0 0 250 250" width="250" height="250">
	<title>63457-ai</title>
	<defs>
		<clipPath clipPathUnits="userSpaceOnUse" id="cp1">
			<path d="m125 250c-69.13 0-125-55.87-125-125 0-69.12 55.88-125 125-125 69.13 0 125 55.88 125 125 0 69.13-55.87 125-125 125z"/>
		</clipPath>
		<clipPath clipPathUnits="userSpaceOnUse" id="cp2">
			<path d="m679.52 122.47c0 57.8-46.86 104.66-104.66 104.66-57.81 0-104.67-46.86-104.67-104.66 0-57.81 46.86-104.67 104.67-104.67 57.8 0 104.66 46.86 104.66 104.67z"/>
		</clipPath>
	</defs>
	<style>
		.s0 { fill: #fff } 
		.s1 { fill: #450909 } 
		.s2 { fill: #f9bb9f } 
		.s3 { mix-blend-mode: multiply;fill: #e7e8e9 } 
		.s4 { fill: #dda78e } 
		.s5 { fill: #0f6f8d } 
		.s6 { fill: #6a1724 } 
		.s7 { fill: #3a2114 } 
		.s8 { fill: #1dadda } 
		.s9 { fill: #fefefe } 
		.s10 { fill: #330001 } 
		.s11 { fill: #0db9ab } 
		.s12 { mix-blend-mode: multiply;fill: #d1d2d4 } 
		.s13 { fill: #140001 } 
		.s14 { fill: #e3e4e5 } 
		.s15 { fill: #0f0804 } 
		.s16 { fill: #170c07 } 
	</style>
	<g id="Capa 1">
		<path id="&lt;Path&gt;" class="s0" d="m125 250c-69.1 0-125-55.9-125-125 0-69.1 55.9-125 125-125 69.1 0 125 55.9 125 125 0 69.1-55.9 125-125 125z"/>
		<g id="&lt;Clip Group&gt;" clip-path="url(#cp1)">
			<g id="&lt;Group&gt;">
				<path id="&lt;Path&gt;" class="s1" d="m67.3 117.3h106.9c16.1 39-7.5 105.8-7.5 105.8h-86.5c-15.3-17.8-13.1-104.8-12.4-105.8"/>
				<g id="&lt;Group&gt;">
					<path id="&lt;Path&gt;" class="s2" d="m102.4 165.1h47.9v32.2h-47.9z"/>
					<path id="&lt;Path&gt;" class="s3" d="m102.4 181.8v-16.7h47.9v26.7c-4.4 0.8-8.9 1.3-13.4 1.3-7.7-0.1-15.6-1.8-22.8-4.7-4-1.6-8.3-3.7-11.7-6.6z"/>
					<g id="&lt;Group&gt;">
						<path id="&lt;Path&gt;" class="s2" d="m178.2 104.4c0.2-1.2 2.2-3.1 3.1-3.8 1.9-1.4 3.9 0.1 4.5 2 0.5 1.7 0.5 3.6 0.7 5.3 0.3 4.3-0.4 8.5-2.3 12.4-1.3 2.5-3.3 4.7-5.7 6.3 0 0-2.6 1.2-3.1-1.7 0 0 2.8-20.5 2.8-20.5z"/>
						<path id="&lt;Path&gt;" class="s4" d="m177.8 107c0.1-0.9 1.5-2.3 2.2-2.7 1.4-1.1 2.8 0 3.2 1.4 0.4 1.2 0.4 2.5 0.5 3.8 0.2 3.1-0.2 6.1-1.6 8.8-0.9 1.9-2.4 3.4-4.1 4.5 0 0-1.8 0.9-2.2-1.2 0 0 2-14.6 2-14.6z"/>
					</g>
					<g id="&lt;Group&gt;">
						<path id="&lt;Path&gt;" class="s2" d="m76.1 124.9c-0.5 2.9-3 1.7-3 1.7-2.4-1.6-4.5-3.8-5.7-6.3-2-3.9-2.6-8.1-2.3-12.4 0.1-1.7 0.2-3.6 0.7-5.3 0.5-1.9 2.5-3.4 4.5-2 0.9 0.7 2.9 2.6 3 3.8 0.1 0 2.8 20.5 2.8 20.5z"/>
						<path id="&lt;Path&gt;" class="s4" d="m75.8 121.6c-0.4 2.1-2.2 1.2-2.2 1.2-1.8-1.1-3.2-2.6-4.1-4.5-1.4-2.7-1.9-5.7-1.7-8.8 0.1-1.3 0.2-2.6 0.5-3.8 0.4-1.4 1.9-2.5 3.3-1.4 0.6 0.4 2 1.8 2.2 2.7 0 0 2 14.6 2 14.6z"/>
					</g>
					<path id="&lt;Path&gt;" class="s2" d="m179.8 108.3c0 13.5-2.4 27.1-8.7 38.8-5.6 10.3-14 18.4-22.9 25-7.3 5.3-15.1 11.5-24.3 10.7-9.6-0.8-17.1-9-24.1-15.3-9.9-9-17.7-20.2-22.5-33.3-2.9-8.1-4.3-17.2-4.3-25.9 0-43.7 23.9-71.2 53.4-71.2 29.5 0 53.4 27.5 53.4 71.2z"/>
					<path id="&lt;Path&gt;" class="s2" d="m226 254.6h-99.6-99.6c2.7-32.4 26.7-42.7 26.7-42.7l52-15.6h20.9 20.8l52 15.6c0 0 24.1 10.3 26.8 42.7z"/>
					<path id="&lt;Path&gt;" class="s5" d="m226 254.6h-99.6-99.6c2.7-32.4 26.7-42.7 26.7-42.7l28.7-8.6 44.2 44.1 44.1-44.1 28.7 8.6c0 0 24.1 10.3 26.8 42.7z"/>
				</g>
				<path id="&lt;Path&gt;" class="s6" d="m146.8 33.1c44.9 22.6 32.8 69.1 32.8 69.1-63.7-7-89.5-47.8-89.5-47.8 22.4-35.4 56.7-21.3 56.7-21.3z"/>
				<path id="&lt;Path&gt;" class="s7" d="m96.7 62.7c0 0-16.6 10.7-23.8 40.7 0 0-7.7-56.5 32.3-63.5z"/>
				<path id="&lt;Path&gt;" class="s6" d="m171 53.6c23.4 33.6 17.2 130.8 17.2 130.8-1.7 47.6-36.2 52.7-36.2 52.7 27-30.8 9.9-139.6 9.9-139.6z"/>
				<path id="&lt;Path&gt;" class="s6" d="m88.7 235.9c0 0-39.7-4.7-28.8-127.1 0 0 2.7-68 42.5-69.5l-2.3 25.7c0 0-22.8 6.9-19.9 60.6 0 0-2.3 86.7 8.5 110.3z"/>
			</g>
		</g>
		<path id="&lt;Path&gt;" class="s8" d="m679.5 124.5c0 57.8-46.8 104.6-104.6 104.6-57.8 0-104.7-46.8-104.7-104.6 0-57.8 46.9-104.7 104.7-104.7 57.8 0 104.6 46.9 104.6 104.7z"/>
		<g id="&lt;Clip Group&gt;" clip-path="url(#cp2)">
			<g id="&lt;Group&gt;">
				<path id="&lt;Path&gt;" class="s2" d="m594.9 183.9h-40.1v-27h40.1z"/>
				<path id="&lt;Path&gt;" class="s3" d="m554.8 170.9v-14h40.1v22.4c-3.7 0.6-7.5 1.1-11.2 1.1-6.5-0.1-13.1-1.5-19.2-3.9-3.3-1.4-6.9-3.1-9.7-5.6z"/>
				<g id="&lt;Group&gt;">
					<path id="&lt;Path&gt;" class="s2" d="m616.7 106.9c0.1-1 1.8-2.6 2.5-3.1 1.6-1.2 3.2 0 3.6 1.6 0.4 1.4 0.5 3 0.6 4.4 0.2 3.6-0.3 7-1.9 10.2-1 2.2-2.6 3.9-4.6 5.2 0 0-2 1.1-2.5-1.3 0 0 2.3-17 2.3-17z"/>
					<path id="&lt;Path&gt;" class="s4" d="m616.4 109c0.1-0.7 1.2-1.8 1.7-2.2 1.2-0.9 2.3 0 2.7 1.2 0.3 1 0.3 2.1 0.4 3.1 0.1 2.6-0.2 5-1.4 7.3-0.7 1.6-1.9 2.8-3.3 3.8 0 0-1.4 0.7-1.7-1 0 0 1.6-12.2 1.6-12.2z"/>
				</g>
				<g id="&lt;Group&gt;">
					<path id="&lt;Path&gt;" class="s2" d="m534.3 123.9c-0.5 2.4-2.5 1.3-2.5 1.3-2-1.3-3.6-3-4.6-5.2-1.6-3.2-2.1-6.6-1.9-10.2 0.1-1.4 0.2-3 0.6-4.4 0.4-1.6 2-2.8 3.6-1.6 0.7 0.5 2.4 2.1 2.5 3.1 0 0 2.3 17 2.3 17z"/>
					<path id="&lt;Path&gt;" class="s4" d="m533.9 121.2c-0.3 1.7-1.7 1-1.7 1-1.4-1-2.6-2.2-3.3-3.8-1.2-2.3-1.5-4.7-1.4-7.3 0.1-1 0.1-2.1 0.4-3.1 0.4-1.2 1.5-2.1 2.7-1.2 0.5 0.4 1.6 1.5 1.7 2.2 0 0 1.6 12.2 1.6 12.2z"/>
				</g>
				<path id="&lt;Path&gt;" class="s2" d="m618 110.1c0 11.2-1.9 22.5-7.1 32.2-4.5 8.4-11.2 15.2-18.5 20.6-5.8 4.4-12.1 9.5-19.6 8.9-7.8-0.7-13.8-7.4-19.5-12.7-7.9-7.5-14.2-16.7-18.1-27.5-2.4-6.7-3.5-14.3-3.5-21.5 0-36.1 19.3-58.9 43.1-58.9 23.9 0 43.2 22.8 43.2 58.9z"/>
				<path id="&lt;Path&gt;" class="s2" d="m670.6 231.9h-95.7-95.8c2.6-27.2 25.8-35.8 25.8-35.8l49.9-13h20.1 20l50 13c0 0 23.1 8.6 25.7 35.8z"/>
				<path id="&lt;Path&gt;" class="s9" d="m670.6 231.9h-95.7-95.8c2.6-27.2 25.8-35.8 25.8-35.8l49.9-13h20.1 20l50 13c0 0 23.1 8.6 25.7 35.8z"/>
				<path id="&lt;Path&gt;" class="s10" d="m670.6 231.9h-95.7-95.8c2.6-27.2 25.8-35.8 25.8-35.8l37.3-9.7 32.7 45.5 33-45.4 37 9.6c0 0 23.1 8.6 25.7 35.8z"/>
				<path id="&lt;Path&gt;" class="s11" d="m578.5 209.1l8.9 22.8h-26.1l9.2-22.8z"/>
				<g id="&lt;Group&gt;">
					<path id="&lt;Path&gt;" class="s11" d="m586.5 198.9l-7.8 10.2h-4l-4 0.1-8.2-10 11.8-15.7z"/>
					<path id="&lt;Path&gt;" class="s12" d="m583.2 194.7l3.3 4.2-7.8 10.2-8 0.1-8.2-10 11.3-15c-1.3 3.4-3.7 6.5-4.6 10.2-0.9 3.7 0.9 7.4 4.8 8.3 3.8 0.8 6.6-2.6 8.1-5.5q0.6-1.2 1.1-2.5z"/>
				</g>
				<path id="&lt;Path&gt;" class="s13" d="m556.3 231.9l-15.4-11.4 8.6-3.8-33.4-23.5 26.1-6.8 32.7 45.5z"/>
				<path id="&lt;Path&gt;" class="s13" d="m574.9 231.9l32.6-45.5 26.1 6.9-33.3 23.5 8.5 3.8-15.4 11.3z"/>
				<path id="&lt;Path&gt;" class="s14" d="m535.2 184l19.6-9.2 19.9 8.4 20-8.4 20.9 9.2-29.6 19.9-11.3-16.2-12.2 16.2z"/>
				<path id="&lt;Path&gt;" class="s15" d="m596.1 147.4c4.5 1.2 17.2-10.3 17.2-10.3-2.4 9-13.2 19.3-13.2 19.3z"/>
				<path id="&lt;Path&gt;" class="s15" d="m552.6 159.4c0 0-12.5-10.7-16-24.2 0 0 14.3 16.5 18.8 15.3z"/>
				<path id="&lt;Path&gt;" class="s16" d="m582.5 141.7c7.1 0.1 10.9 2.5 10.9 2.5 6.3 3 7.9 11 7.9 11 0 0-4.3 4.7-9.5 8.1-11.9 9.8-17.3 8.5-17.3 8.5-6.7 0-11.4-4.2-11.4-4.2l-11.1-8.6c-1.4-9.9 7.2-14.8 7.2-14.8 5.2-2.5 6.1-2.1 6.1-2.1 0 0 7.7-0.9 9.6 2.1 0 0 2-2.5 7.2-2.5"/>
				<g id="&lt;Group&gt;">
					<path id="&lt;Path&gt;" class="s2" d="m586.9 150.1c-12.2 11.2-22.9-0.1-22.9-0.1 7-2.6 11.9-0.2 11.9-0.2 4.4-2.7 11 0.3 11 0.3z"/>
				</g>
				<path id="&lt;Path&gt;" class="s15" d="m619.6 95.8q0 0.6 0 1.4l-1 17.2h-3.4c1.1-6.3 0.5-15.3 0.2-19.2l-2.6-11.6c0 0-3.4-18.3-26.5-15.2 0 0-8 1.5-10.3 7.7 0 0-4.5-10.8-19.7-8.6l-3.5 0.3c-3.7 0.7-9.4 3.1-13.1 11.2-1.5 3.3-2.8 8-5.1 16 0 0-1.6 11.2 0 19.4h-3.5l-1-17.2q0 0 0 0c-1-14.2-0.9-40.4 14.6-42.7 5.3-17.6 26.6-19.6 26.6-19.6 0 0 19.3-3 26.3-9.2 0 0-0.8 6.5-8.7 11 0 0 12-3 16.1-9.9 0 0 3.6 8.8-2.2 12.6 0 0 11.9-3.4 14.6-9.4 0 0 4.2 10.7-4.3 15.9 0 0 8.3-0.8 13.9-7.1 0 0 1.1 10.9-8.6 18 4.5 13.9 2.9 29.5 1.2 39z"/>
			</g>
		</g>
	</g>
</svg>