<svg version="1.2" xmlns="http://www.w3.org/2000/svg" viewBox="0 0 250 250" width="250" height="250">
	<title>63457-ai</title>
	<defs>
		<clipPath clipPathUnits="userSpaceOnUse" id="cp1">
			<path d="m-278 361c-69.13 0-125-55.87-125-125 0-69.12 55.88-125 125-125 69.13 0 125 55.88 125 125 0 69.13-55.87 125-125 125z"/>
		</clipPath>
		<clipPath clipPathUnits="userSpaceOnUse" id="cp2">
			<path d="m124.01 249.98c-69.67 0-125.99-56.32-125.99-125.99 0-69.67 56.32-125.99 125.99-125.99 69.67 0 125.99 56.32 125.99 125.99 0 69.67-56.32 125.99-125.99 125.99z"/>
		</clipPath>
	</defs>
	<style>
		.s0 { fill: #ff00d8 } 
		.s1 { fill: #450909 } 
		.s2 { fill: #f9bb9f } 
		.s3 { mix-blend-mode: multiply;fill: #e7e8e9 } 
		.s4 { fill: #dda78e } 
		.s5 { fill: #0f6f8d } 
		.s6 { fill: #6a1724 } 
		.s7 { fill: #3a2114 } 
		.s8 { fill: #ffffff } 
		.s9 { fill: #fefefe } 
		.s10 { fill: #330001 } 
		.s11 { fill: #0db9ab } 
		.s12 { mix-blend-mode: multiply;fill: #d1d2d4 } 
		.s13 { fill: #140001 } 
		.s14 { fill: #e3e4e5 } 
		.s15 { fill: #0f0804 } 
		.s16 { fill: #170c07 } 
	</style>
	<g id="Capa 1">
		<path id="&lt;Path&gt;" class="s0" d="m-278 361c-69.1 0-125-55.9-125-125 0-69.1 55.9-125 125-125 69.1 0 125 55.9 125 125 0 69.1-55.9 125-125 125z"/>
		<g id="&lt;Clip Group&gt;" clip-path="url(#cp1)">
			<g id="&lt;Group&gt;">
				<path id="&lt;Path&gt;" class="s1" d="m-335.7 228.3h106.9c16.1 39-7.5 105.8-7.5 105.8h-86.5c-15.3-17.8-13.1-104.8-12.4-105.8"/>
				<g id="&lt;Group&gt;">
					<path id="&lt;Path&gt;" class="s2" d="m-300.6 276.1h47.9v32.2h-47.9z"/>
					<path id="&lt;Path&gt;" class="s3" d="m-300.6 292.8v-16.7h47.9v26.7c-4.4 0.8-8.9 1.3-13.4 1.3-7.7-0.1-15.6-1.8-22.8-4.7-4-1.6-8.3-3.7-11.7-6.6z"/>
					<g id="&lt;Group&gt;">
						<path id="&lt;Path&gt;" class="s2" d="m-224.8 215.4c0.2-1.2 2.2-3.1 3.1-3.8 1.9-1.4 3.9 0.1 4.5 2 0.5 1.7 0.5 3.6 0.7 5.3 0.3 4.3-0.4 8.5-2.3 12.4-1.3 2.5-3.3 4.7-5.7 6.3 0 0-2.6 1.2-3.1-1.7 0 0 2.8-20.5 2.8-20.5z"/>
						<path id="&lt;Path&gt;" class="s4" d="m-225.2 218c0.1-0.9 1.5-2.3 2.2-2.7 1.4-1.1 2.8 0 3.2 1.4 0.4 1.2 0.4 2.5 0.5 3.8 0.2 3.1-0.2 6.1-1.6 8.8-0.9 1.9-2.4 3.4-4.1 4.5 0 0-1.8 0.9-2.2-1.2 0 0 2-14.6 2-14.6z"/>
					</g>
					<g id="&lt;Group&gt;">
						<path id="&lt;Path&gt;" class="s2" d="m-326.9 235.9c-0.5 2.9-3 1.7-3 1.7-2.4-1.6-4.5-3.8-5.7-6.3-2-3.9-2.6-8.1-2.3-12.4 0.1-1.7 0.2-3.6 0.7-5.3 0.5-1.9 2.5-3.4 4.5-2 0.9 0.7 2.9 2.6 3 3.8 0.1 0 2.8 20.5 2.8 20.5z"/>
						<path id="&lt;Path&gt;" class="s4" d="m-327.2 232.6c-0.4 2.1-2.2 1.2-2.2 1.2-1.8-1.1-3.2-2.6-4.1-4.5-1.4-2.7-1.9-5.7-1.7-8.8 0.1-1.3 0.2-2.6 0.5-3.8 0.4-1.4 1.9-2.5 3.3-1.4 0.6 0.4 2 1.8 2.2 2.7 0 0 2 14.6 2 14.6z"/>
					</g>
					<path id="&lt;Path&gt;" class="s2" d="m-223.2 219.3c0 13.5-2.4 27.1-8.7 38.8-5.6 10.3-14 18.4-22.9 25-7.3 5.3-15.1 11.5-24.3 10.7-9.6-0.8-17.1-9-24.1-15.3-9.9-9-17.7-20.2-22.5-33.3-2.9-8.1-4.3-17.2-4.3-25.9 0-43.7 23.9-71.2 53.4-71.2 29.5 0 53.4 27.5 53.4 71.2z"/>
					<path id="&lt;Path&gt;" class="s2" d="m-177 365.6h-99.6-99.6c2.7-32.4 26.7-42.7 26.7-42.7l52-15.6h20.9 20.8l52 15.6c0 0 24.1 10.3 26.8 42.7z"/>
					<path id="&lt;Path&gt;" class="s5" d="m-177 365.6h-99.6-99.6c2.7-32.4 26.7-42.7 26.7-42.7l28.7-8.6 44.2 44.1 44.1-44.1 28.7 8.6c0 0 24.1 10.3 26.8 42.7z"/>
				</g>
				<path id="&lt;Path&gt;" class="s6" d="m-256.2 144.1c44.9 22.6 32.8 69.1 32.8 69.1-63.7-7-89.5-47.8-89.5-47.8 22.4-35.4 56.7-21.3 56.7-21.3z"/>
				<path id="&lt;Path&gt;" class="s7" d="m-306.3 173.7c0 0-16.6 10.7-23.8 40.7 0 0-7.7-56.5 32.3-63.5z"/>
				<path id="&lt;Path&gt;" class="s6" d="m-232 164.6c23.4 33.6 17.2 130.8 17.2 130.8-1.7 47.6-36.2 52.7-36.2 52.7 27-30.8 9.9-139.6 9.9-139.6z"/>
				<path id="&lt;Path&gt;" class="s6" d="m-314.3 346.9c0 0-39.7-4.7-28.8-127.1 0 0 2.7-68 42.5-69.5l-2.3 25.7c0 0-22.8 6.9-19.9 60.6 0 0-2.3 86.7 8.5 110.3z"/>
			</g>
		</g>
		<path id="&lt;Path&gt;" class="s8" d="m124.6 249.7c-68.9 0-124.6-55.7-124.6-124.7 0-68.9 55.7-124.6 124.6-124.6 69 0 124.7 55.7 124.7 124.6 0 69-55.7 124.7-124.7 124.7z"/>
		<g id="&lt;Clip Group&gt;" clip-path="url(#cp2)">
			<g id="&lt;Group&gt;">
				<path id="&lt;Path&gt;" class="s2" d="m99.9 165.5h48.2v32.5h-48.2z"/>
				<path id="&lt;Path&gt;" class="s3" d="m99.9 182.3v-16.8h48.2v26.9c-4.4 0.8-9 1.3-13.4 1.3-7.9-0.1-15.8-1.8-23.1-4.7-4-1.6-8.3-3.7-11.7-6.7z"/>
				<g id="&lt;Group&gt;">
					<path id="&lt;Path&gt;" class="s2" d="m174.4 105.3c0.1-1.2 2.1-3.1 3-3.8 1.9-1.4 3.8 0.1 4.4 1.9 0.5 1.7 0.5 3.6 0.6 5.4 0.3 4.2-0.3 8.4-2.2 12.3-1.2 2.5-3.2 4.6-5.5 6.2 0 0-2.5 1.3-3-1.6 0 0 2.7-20.4 2.7-20.4z"/>
					<path id="&lt;Path&gt;" class="s4" d="m174 107.8c0.1-0.8 1.5-2.2 2.1-2.7 1.4-1 2.8 0.1 3.2 1.4 0.3 1.2 0.3 2.6 0.4 3.8 0.2 3.1-0.2 6.1-1.5 8.8-0.9 1.9-2.4 3.4-4 4.5 0 0-1.8 0.9-2.2-1.2 0 0 2-14.6 2-14.6z"/>
				</g>
				<g id="&lt;Group&gt;">
					<path id="&lt;Path&gt;" class="s2" d="m75.1 125.7c-0.5 2.9-3 1.6-3 1.6-2.3-1.6-4.3-3.7-5.5-6.2-1.9-3.9-2.5-8.1-2.2-12.3 0.1-1.8 0.1-3.7 0.6-5.4 0.6-1.8 2.5-3.3 4.4-1.9 0.9 0.7 2.9 2.6 3 3.8 0 0 2.7 20.4 2.7 20.4z"/>
					<path id="&lt;Path&gt;" class="s4" d="m74.8 122.4c-0.4 2.1-2.2 1.2-2.2 1.2-1.7-1.1-3.1-2.6-4-4.5-1.3-2.7-1.7-5.7-1.5-8.8 0-1.2 0.1-2.6 0.4-3.8 0.4-1.3 1.8-2.4 3.2-1.4 0.6 0.5 2 1.9 2.1 2.7 0 0 2 14.6 2 14.6z"/>
				</g>
				<path id="&lt;Path&gt;" class="s2" d="m175.9 109.1c0 13.5-2.3 27.1-8.5 38.7-5.4 10.2-13.5 18.3-22.2 24.9-7.1 5.2-14.7 11.4-23.7 10.6-9.3-0.7-16.6-8.9-23.4-15.3-9.6-8.9-17.2-20-21.8-33.1-2.9-8-4.2-17.1-4.2-25.8 0-43.5 23.2-70.8 51.9-70.8 28.7 0 51.9 27.3 51.9 70.8z"/>
				<path id="&lt;Path&gt;" class="s2" d="m239.2 255.7h-115.2-115.2c3.1-32.7 31-43 31-43l60.1-15.7h24.1 24.1l60.2 15.7c0 0 27.8 10.3 30.9 43z"/>
				<path id="&lt;Path&gt;" class="s9" d="m239.2 255.7h-115.2-115.2c3.1-32.7 31-43 31-43l60.1-15.7h24.1 24.1l60.2 15.7c0 0 27.8 10.3 30.9 43z"/>
				<path id="&lt;Path&gt;" class="s10" d="m239.2 255.7h-115.2-115.2c3.1-32.7 31-43 31-43l44.9-11.8 39.3 54.8 39.8-54.7 44.5 11.7c0 0 27.8 10.3 30.9 43z"/>
				<path id="&lt;Path&gt;" class="s11" d="m128.3 228.3l10.8 27.4h-31.4l11-27.4z"/>
				<g id="&lt;Group&gt;">
					<path id="&lt;Path&gt;" class="s11" d="m138 215.9l-9.4 12.3-4.8 0.1-4.8 0.1-9.8-12 14.1-18.9z"/>
					<path id="&lt;Path&gt;" class="s12" d="m134 210.9l4 5-9.4 12.3-9.6 0.2-9.8-12 13.5-18.1c-1.6 4.2-4.4 7.8-5.5 12.2-1.1 4.6 1.1 9 5.8 10.1 4.5 1 7.9-3.1 9.7-6.7q0.7-1.4 1.3-3z"/>
				</g>
				<path id="&lt;Path&gt;" class="s13" d="m101.7 255.7l-18.6-13.7 10.3-4.6-40.2-28.2 31.5-8.3 39.3 54.8z"/>
				<path id="&lt;Path&gt;" class="s13" d="m124 255.8l39.3-54.8 31.5 8.2-40.2 28.3 10.3 4.6-18.6 13.7z"/>
				<path id="&lt;Path&gt;" class="s14" d="m76.2 198.1l23.6-11.1 24 10.1 24.1-10.1 25.2 11.1-35.6 23.9-13.7-19.5-14.6 19.5z"/>
				<path id="&lt;Path&gt;" class="s15" d="m149.6 154c5.3 1.5 20.7-12.4 20.7-12.4-2.9 10.9-15.9 23.2-15.9 23.2z"/>
				<path id="&lt;Path&gt;" class="s15" d="m97.2 168.5c0 0-15.1-13-19.2-29.2 0 0 17.2 19.9 22.6 18.4z"/>
				<path id="&lt;Path&gt;" class="s16" d="m133.2 147.1c8.5 0.1 13.2 3.1 13.2 3.1 7.5 3.5 9.4 13.1 9.4 13.1 0 0-5.2 5.8-11.5 9.8-14.2 11.8-20.7 10.3-20.7 10.3-8.1 0-13.8-5.1-13.8-5.1l-13.3-10.4c-1.7-11.8 8.7-17.7 8.7-17.7 6.2-3 7.3-2.6 7.3-2.6 0 0 9.3-1.1 11.6 2.6 0 0 2.3-3.1 8.6-3.1"/>
				<g id="&lt;Group&gt;">
					<path id="&lt;Path&gt;" class="s2" d="m138.5 157.3c-14.7 13.5-27.6-0.2-27.6-0.2 8.5-3.1 14.4-0.2 14.4-0.2 5.3-3.3 13.2 0.4 13.2 0.4z"/>
				</g>
				<path id="&lt;Path&gt;" class="s15" d="m177.9 91.9q0 0.8 0 1.7l-1.2 20.7h-4.2c1.5-7.6 0.7-18.4 0.3-23.1l-3.2-14c0 0-4-22-31.8-18.3 0 0-9.6 1.8-12.4 9.3 0 0-5.4-13-23.8-10.3l-4.2 0.3c-4.4 0.8-11.3 3.8-15.7 13.4-1.9 4.1-3.3 9.7-6.2 19.4 0 0-1.8 13.4 0 23.3h-4.1l-1.2-20.7q0 0 0 0c-1.3-17.1-1.1-48.7 17.6-51.4 6.3-21.2 31.9-23.6 31.9-23.6 0 0 23.2-3.6 31.7-11.1 0 0-1 7.8-10.5 13.2 0 0 14.5-3.6 19.4-11.9 0 0 4.3 10.6-2.7 15.3 0 0 14.4-4.2 17.6-11.4 0 0 5.1 12.9-5.2 19.1 0 0 10-1 16.8-8.5 0 0 1.3 13.1-10.4 21.7 5.4 16.6 3.6 35.4 1.5 46.9z"/>
			</g>
		</g>
	</g>
</svg>